<?xml version="1.0" encoding="UTF-8"?>
<svg version="1.1" xmlns="http://www.w3.org/2000/svg" width="512" height="512">
<path d="M0 0 C1.45108658 0.00273422 1.45108658 0.00273422 2.93148804 0.00552368 C17.26440977 0.05095174 31.21023917 0.55983928 45.3125 3.3125 C46.65803955 3.55395752 46.65803955 3.55395752 48.03076172 3.80029297 C107.84088904 14.62287989 165.35495829 48.68064457 202.3125 97.3125 C202.72918945 97.85277832 203.14587891 98.39305664 203.57519531 98.94970703 C211.2584873 108.9447116 218.00092968 119.40459036 224.3125 130.3125 C224.70679199 130.98974121 225.10108398 131.66698242 225.50732422 132.36474609 C238.68961173 155.2833756 247.29510918 180.85822563 252.625 206.6875 C252.77243652 207.39817627 252.91987305 208.10885254 253.07177734 208.84106445 C256.05713787 224.48358366 256.6873098 240.11919606 256.625 256 C256.62226578 257.45108658 256.62226578 257.45108658 256.61947632 258.93148804 C256.57404826 273.26440977 256.06516072 287.21023917 253.3125 301.3125 C253.15152832 302.20952637 252.99055664 303.10655273 252.82470703 304.03076172 C243.89886419 353.35869051 220.0221812 398.37957013 185.3125 434.3125 C184.71356934 434.93334473 184.11463867 435.55418945 183.49755859 436.19384766 C175.83373497 444.09500259 168.09251606 451.64016955 159.3125 458.3125 C158.77222168 458.72918945 158.23194336 459.14587891 157.67529297 459.57519531 C125.81531653 484.06637989 89.29345678 500.52448249 49.9375 508.625 C49.22698486 508.77235596 48.51646973 508.91971191 47.78442383 509.0715332 C32.91647341 511.91009616 18.03839294 512.66283947 2.93701172 512.62817383 C0.07871118 512.6250179 -2.77854516 512.64857578 -5.63671875 512.67382812 C-18.87029805 512.71920177 -31.63866546 511.48145966 -44.6875 509.3125 C-46.39413818 509.03031616 -46.39413818 509.03031616 -48.13525391 508.74243164 C-107.57972909 498.05619461 -165.01938976 463.56349705 -201.6875 415.3125 C-202.10418945 414.77222168 -202.52087891 414.23194336 -202.95019531 413.67529297 C-210.6334873 403.6802884 -217.37592968 393.22040964 -223.6875 382.3125 C-224.08179199 381.63525879 -224.47608398 380.95801758 -224.88232422 380.26025391 C-238.06461173 357.3416244 -246.67010918 331.76677437 -252 305.9375 C-252.14743652 305.22682373 -252.29487305 304.51614746 -252.44677734 303.78393555 C-255.43213787 288.14141634 -256.0623098 272.50580394 -256 256.625 C-255.99817719 255.65760895 -255.99635437 254.6902179 -255.99447632 253.69351196 C-255.94904826 239.36059023 -255.44016072 225.41476083 -252.6875 211.3125 C-252.44604248 209.96696045 -252.44604248 209.96696045 -252.19970703 208.59423828 C-241.37712011 148.78411096 -207.31935543 91.27004171 -158.6875 54.3125 C-158.14722168 53.89581055 -157.60694336 53.47912109 -157.05029297 53.04980469 C-147.0552884 45.3665127 -136.59540964 38.62407032 -125.6875 32.3125 C-125.01025879 31.91820801 -124.33301758 31.52391602 -123.63525391 31.11767578 C-100.7166244 17.93538827 -75.14177437 9.32989082 -49.3125 4 C-48.60182373 3.85256348 -47.89114746 3.70512695 -47.15893555 3.55322266 C-31.51641634 0.56786213 -15.88080394 -0.0623098 0 0 Z " fill="#17AA92" transform="translate(255.6875,-0.3125)"/>
<path d="M0 0 C9.24 0 18.48 0 28 0 C27.16810698 4.15946508 26.35275058 6.66193001 24.49975586 10.34106445 C23.97929184 11.3817659 23.45882782 12.42246735 22.92259216 13.4947052 C22.35903519 14.6063353 21.79547821 15.71796539 21.21484375 16.86328125 C20.63916153 18.01040085 20.06347931 19.15752045 19.47035217 20.33940125 C17.94510856 23.37847335 16.41269028 26.41387119 14.87872314 29.44854736 C13.31256558 32.55008979 11.75319095 35.65503824 10.19335938 38.75976562 C7.13620264 44.84356854 4.06785349 50.92153701 1 57 C10.24 57 19.48 57 29 57 C29.66 55.02 30.32 53.04 31 51 C31.76490101 49.3040449 32.56526965 47.62368594 33.3984375 45.96020508 C33.8723291 45.00934525 34.3462207 44.05848541 34.83447266 43.07881165 C35.59703369 41.56446785 35.59703369 41.56446785 36.375 40.01953125 C37.16269775 38.44482307 37.16269775 38.44482307 37.96630859 36.83830261 C39.07395023 34.62603327 40.1835303 32.41473354 41.29492188 30.2043457 C42.99810995 26.8162598 44.69484773 23.42500329 46.390625 20.03320312 C47.46837217 17.88262311 48.54648463 15.73222612 49.625 13.58203125 C50.38756104 12.05857841 50.38756104 12.05857841 51.16552734 10.50434875 C51.87636475 9.09224373 51.87636475 9.09224373 52.6015625 7.65161133 C53.01744629 6.82365555 53.43333008 5.99569977 53.86181641 5.14265442 C55 3 55 3 57 0 C66.63275858 -2.35875399 79.85305842 -2.78325611 89.08486176 1.39678574 C96.05260146 5.89504129 101.59874411 11.9042531 107.2421875 17.91796875 C109.08106768 19.77545625 110.92543464 21.62752614 112.77493286 23.47444153 C116.61169622 27.32692483 120.38903847 31.23036973 124.13134766 35.17456055 C128.44252452 39.71748617 132.82538448 44.17986371 137.25658691 48.60559291 C141.55296974 52.89789249 145.80675631 57.22951789 150.04080582 61.58330727 C151.8307026 63.42010173 153.62892362 65.24882388 155.43566513 67.06905174 C157.94880302 69.61738376 160.41043913 72.20652357 162.86279297 74.81323242 C163.60628998 75.55195587 164.34978699 76.29067932 165.11581421 77.05178833 C168.23586126 80.45940877 169.90592937 82.63592519 170.23009872 87.33655548 C169.99532342 90.61545928 169.58560064 93.76704638 169 97 C168.82791016 98.19383301 168.65582031 99.38766602 168.47851562 100.61767578 C158.12350398 151.78309596 136.37642673 197.34158466 100 235 C99.40106934 235.62084473 98.80213867 236.24168945 98.18505859 236.88134766 C90.52123497 244.78250259 82.78001606 252.32766955 74 259 C73.45972168 259.41668945 72.91944336 259.83337891 72.36279297 260.26269531 C40.50281653 284.75387989 3.98095678 301.21198249 -35.375 309.3125 C-36.08551514 309.45985596 -36.79603027 309.60721191 -37.52807617 309.7590332 C-52.39602659 312.59759616 -67.27410706 313.35033947 -82.37548828 313.31567383 C-85.23378882 313.3125179 -88.09104516 313.33607578 -90.94921875 313.36132812 C-108.25351146 313.42112694 -125.18612309 311.42177713 -142.0625 307.5625 C-142.95130859 307.37107422 -143.84011719 307.17964844 -144.75585938 306.98242188 C-146.52697025 306.58898315 -148.29218512 306.1676584 -150.04904175 305.71479797 C-152.94903502 304.96466717 -152.94903502 304.96466717 -155.74673462 304.59623718 C-168.16372495 302.06285744 -175.62289481 292.50491068 -184.11328125 283.765625 C-185.81907867 282.04301848 -187.5268914 280.32240548 -189.23661804 278.60369873 C-193.70699203 274.09914438 -198.14966201 269.56822012 -202.58691406 265.03106689 C-207.12926506 260.39625359 -211.697559 255.78716533 -216.26367188 251.17578125 C-225.20120614 242.1420469 -234.11056702 233.08105873 -243 224 C-240 224 -240 224 -236.71838379 225.47297668 C-230.52464012 227.86259458 -224.04981877 227.44057687 -217.50585938 227.43237305 C-216.04656144 227.44140109 -214.58727107 227.45173086 -213.12799072 227.46325684 C-209.1864211 227.4907308 -205.24499575 227.50009821 -201.30334282 227.50611091 C-197.1766582 227.5155197 -193.05008028 227.54172505 -188.92346191 227.56611633 C-181.1180704 227.60971628 -173.31269968 227.63830313 -165.50722361 227.66143972 C-156.61718188 227.68852634 -147.72724784 227.73243566 -138.83728313 227.77772844 C-120.55823158 227.87048158 -102.27919038 227.93998452 -84 228 C-84 209.19 -84 190.38 -84 171 C-46.71 171 -9.42 171 29 171 C29 142.62 29 114.24 29 85 C-8.29 85 -45.58 85 -84 85 C-84 75.76 -84 66.52 -84 57 C-65.52 56.67 -47.04 56.34 -28 56 C-14.14 28.28 -14.14 28.28 0 0 Z " fill="#0A7C66" transform="translate(341,199)"/>
<path d="M0 0 C-0.60994211 3.42065399 -1.47252447 6.52950913 -2.71826172 9.77099609 C-3.06887665 10.68899994 -3.41949158 11.60700378 -3.7807312 12.55282593 C-4.15988678 13.53312775 -4.53904236 14.51342957 -4.9296875 15.5234375 C-5.32068634 16.54297516 -5.71168518 17.56251282 -6.11453247 18.61294556 C-6.94151179 20.7670958 -7.77040474 22.92051223 -8.60107422 25.07324219 C-9.86710595 28.35454023 -11.12743369 31.63798262 -12.38671875 34.921875 C-13.19237404 37.01835766 -13.99835306 39.11471595 -14.8046875 41.2109375 C-15.17979462 42.18719086 -15.55490173 43.16344421 -15.94137573 44.16928101 C-16.95087916 46.78357615 -17.97457504 49.39192134 -19 52 C-19.27120667 52.72262024 -19.54241333 53.44524048 -19.82183838 54.1897583 C-20.57470703 56.11181641 -20.57470703 56.11181641 -22 59 C-25 60 -25 60 -36 61 C-22.14 61.33 -8.28 61.66 6 62 C-0.18121324 75.15456984 -6.53609188 88.20139536 -13.0625 101.1875 C-13.93704048 102.9315446 -14.81139015 104.67568489 -15.68554688 106.41992188 C-17.78783738 110.61455828 -19.89397389 114.80722981 -22 119 C-12.76 118.67 -3.52 118.34 6 118 C7.84207031 114.29265625 9.68414062 110.5853125 11.58203125 106.765625 C13.05575323 103.80531346 14.53028415 100.84540799 16.00536346 97.88577271 C17.56077241 94.7644064 19.11475598 91.64234925 20.6652832 88.51855469 C22.44557999 84.93201639 24.23238132 81.3487534 26.01953125 77.765625 C26.57276566 76.64883362 27.12600006 75.53204224 27.69599915 74.38140869 C28.2163121 73.34063171 28.73662506 72.29985474 29.27270508 71.22753906 C29.72793045 70.31264709 30.18315582 69.39775513 30.6521759 68.45513916 C31.95063346 66.08992399 33.2073749 64.0181872 35 62 C37.91088867 61.54589844 37.91088867 61.54589844 41.41796875 61.609375 C43.29838867 61.62871094 43.29838867 61.62871094 45.21679688 61.6484375 C46.52712891 61.68195313 47.83746094 61.71546875 49.1875 61.75 C50.5227601 61.77006693 51.85804883 61.78831738 53.19335938 61.8046875 C56.46296146 61.85190197 59.73112192 61.91774816 63 62 C56.83361361 75.15961854 50.4632475 88.20270983 43.9375 101.1875 C43.06295952 102.9315446 42.18860985 104.67568489 41.31445312 106.41992188 C39.21216262 110.61455828 37.10602611 114.80722981 35 119 C44.24 118.67 53.48 118.34 63 118 C72.24 99.52 81.48 81.04 91 62 C100.57 62 110.14 62 120 62 C113.81878676 75.15456984 107.46390812 88.20139536 100.9375 101.1875 C100.06295952 102.9315446 99.18860985 104.67568489 98.31445312 106.41992188 C96.21216262 110.61455828 94.10602611 114.80722981 92 119 C101.24 118.67 110.48 118.34 120 118 C121.92585937 114.12507813 123.85171875 110.25015625 125.8359375 106.2578125 C127.37254168 103.17174473 128.90995041 100.08608076 130.44790649 97.00068665 C132.07185795 93.74221688 133.69437821 90.48305229 135.31347656 87.22216797 C136.87259507 84.08222096 138.43559915 80.9442369 140.00133133 77.80758286 C140.88921167 76.02632132 141.7730428 74.24304331 142.65682983 72.45974731 C143.19723907 71.37877777 143.73764832 70.29780823 144.29443359 69.18408203 C144.76964447 68.22921906 145.24485535 67.27435608 145.73446655 66.29055786 C147 64 147 64 149 62 C151.79736328 61.77294922 151.79736328 61.77294922 155.3203125 61.8046875 C157.20556641 61.81435547 157.20556641 61.81435547 159.12890625 61.82421875 C160.44761719 61.84097656 161.76632812 61.85773438 163.125 61.875 C164.46483721 61.88503017 165.80468152 61.89415596 167.14453125 61.90234375 C170.42986573 61.92597925 173.71484465 61.95892766 177 62 C170.83361361 75.15961854 164.4632475 88.20270983 157.9375 101.1875 C157.06295952 102.9315446 156.18860985 104.67568489 155.31445312 106.41992188 C153.21216262 110.61455828 151.10602611 114.80722981 149 119 C139.76 119 130.52 119 121 119 C121 128.24 121 137.48 121 147 C158.29 147 195.58 147 234 147 C234 175.38 234 203.76 234 233 C196.71 233 159.42 233 121 233 C121 251.81 121 270.62 121 290 C101.91043732 290.11307334 82.82114777 290.20509211 63.73133469 290.25906086 C54.86666585 290.28479079 46.0022206 290.31984099 37.13769531 290.37719727 C29.40710837 290.42719256 21.67668343 290.45932886 13.9459393 290.47044247 C9.85634114 290.47693411 5.76720625 290.49208086 1.67775726 290.52865028 C-2.18009719 290.56286562 -6.0373024 290.57300228 -9.89529419 290.56553841 C-11.30288993 290.56690167 -12.71050987 290.57668159 -14.11797333 290.59602737 C-24.18809101 290.72752496 -33.63577593 289.68272226 -41.49800491 282.81935596 C-49.06109602 275.00949437 -51.15238491 266.31288341 -51.13803101 255.70375061 C-51.14085229 254.85916477 -51.14367357 254.01457893 -51.14658034 253.14439958 C-51.15492575 250.30857809 -51.15626466 247.47279566 -51.15771484 244.63696289 C-51.16238385 242.60463349 -51.16752756 240.57230513 -51.17311096 238.53997803 C-51.18439902 234.15569723 -51.19283052 229.77142326 -51.19923019 225.38713264 C-51.20993547 218.42679973 -51.23019425 211.46651503 -51.25234985 204.50621033 C-51.3141659 184.7098109 -51.3680374 164.9134127 -51.40136719 145.11694336 C-51.41984717 134.1885291 -51.44895991 123.26019425 -51.4893719 112.33183855 C-51.51024439 106.56128927 -51.5258704 100.7908393 -51.52817917 95.02025032 C-51.53586004 62.13787375 -51.53586004 62.13787375 -54.36050415 29.40769958 C-56.06237314 16.09355971 -56.06237314 16.09355971 -52 10 C-46.68541412 4.75627526 -42.45361079 3.72869015 -35.1953125 3.02734375 C-34.31978729 2.93997452 -33.44426208 2.85260529 -32.54220581 2.7625885 C-30.68799045 2.57837654 -28.83358276 2.39609194 -26.97900391 2.21557617 C-24.14308721 1.9392623 -21.30785079 1.65666489 -18.47265625 1.37304688 C-16.67191185 1.1949395 -14.8711317 1.01719324 -13.0703125 0.83984375 C-12.22228058 0.75548569 -11.37424866 0.67112762 -10.5005188 0.58421326 C-9.70644623 0.50735794 -8.91237366 0.43050262 -8.09423828 0.35131836 C-7.39855743 0.28327499 -6.70287659 0.21523163 -5.9861145 0.14512634 C-3.99546395 -0.00033145 -1.99595782 0 0 0 Z " fill="#31373B" transform="translate(136,137)"/>
<path d="M0 0 C9.24 0 18.48 0 28 0 C27.16810698 4.15946508 26.35275058 6.66193001 24.49975586 10.34106445 C23.97929184 11.3817659 23.45882782 12.42246735 22.92259216 13.4947052 C22.35903519 14.6063353 21.79547821 15.71796539 21.21484375 16.86328125 C20.63916153 18.01040085 20.06347931 19.15752045 19.47035217 20.33940125 C17.94510856 23.37847335 16.41269028 26.41387119 14.87872314 29.44854736 C13.31256558 32.55008979 11.75319095 35.65503824 10.19335938 38.75976562 C7.13620264 44.84356854 4.06785349 50.92153701 1 57 C10.24 57 19.48 57 29 57 C29.99 54.03 29.99 54.03 31 51 C31.76490101 49.3040449 32.56526965 47.62368594 33.3984375 45.96020508 C33.8723291 45.00934525 34.3462207 44.05848541 34.83447266 43.07881165 C35.34284668 42.06924911 35.8512207 41.05968658 36.375 40.01953125 C36.90013184 38.9697258 37.42526367 37.91992035 37.96630859 36.83830261 C39.07395023 34.62603327 40.1835303 32.41473354 41.29492188 30.2043457 C42.99810995 26.8162598 44.69484773 23.42500329 46.390625 20.03320312 C47.46837217 17.88262311 48.54648463 15.73222612 49.625 13.58203125 C50.13337402 12.56639603 50.64174805 11.5507608 51.16552734 10.50434875 C51.63941895 9.5629454 52.11331055 8.62154205 52.6015625 7.65161133 C53.01744629 6.82365555 53.43333008 5.99569977 53.86181641 5.14265442 C55 3 55 3 57 0 C59.88916016 -0.34057617 59.88916016 -0.34057617 63.5390625 -0.29296875 C65.49199219 -0.2784668 65.49199219 -0.2784668 67.484375 -0.26367188 C68.86458923 -0.23860388 70.24479756 -0.21320902 71.625 -0.1875 C73.01300663 -0.17245517 74.40102867 -0.15876641 75.7890625 -0.14648438 C79.19309509 -0.1110257 82.59635622 -0.06160298 86 0 C86.11692317 26.3909924 86.20503232 52.78194584 86.25906086 79.17314529 C86.28481667 91.42769288 86.31991723 103.68207931 86.37719727 115.93652344 C86.42711231 126.62042182 86.45931007 137.30420346 86.47044247 147.98821521 C86.47694745 153.64271422 86.49218164 159.29687931 86.52865028 164.95127106 C86.56273757 170.2799088 86.57302721 175.60807693 86.56553841 180.93681335 C86.56690727 182.88621833 86.57676337 184.83563998 86.59602737 186.78495026 C86.71081294 199.00555689 86.42263674 210.20488388 77.9375 219.9375 C69.08808067 227.74044786 58.53730307 228.72517309 47.23535156 228.56762695 C45.79517669 228.56621298 44.35499823 228.56701526 42.91482544 228.56983948 C39.04343455 228.57126148 35.17283405 228.54207206 31.30162525 228.50696969 C27.24179512 228.47550064 23.18194256 228.47275939 19.12200928 228.46684265 C11.45113753 228.45136408 3.78062633 228.41041774 -3.89008737 228.3600952 C-12.63017241 228.30401412 -21.37027558 228.27666829 -30.11049604 228.25161803 C-48.07390935 228.19949561 -66.03682904 228.10787993 -84 228 C-84 209.19 -84 190.38 -84 171 C-46.71 171 -9.42 171 29 171 C29 142.62 29 114.24 29 85 C-8.29 85 -45.58 85 -84 85 C-84 75.76 -84 66.52 -84 57 C-65.52 56.67 -47.04 56.34 -28 56 C-18.76 37.52 -9.52 19.04 0 0 Z " fill="#22272B" transform="translate(341,199)"/>
<path d="M0 0 C75.24 0 150.48 0 228 0 C228 28.38 228 56.76 228 86 C152.76 86 77.52 86 0 86 C0 57.62 0 29.24 0 0 Z " fill="#7DBBB8" transform="translate(142,284)"/>
<path d="M0 0 C37.62 0 75.24 0 114 0 C114 27.72 114 55.44 114 84 C76.38 84 38.76 84 0 84 C0 56.28 0 28.56 0 0 Z " fill="#99D9D8" transform="translate(143,285)"/>
<path d="M0 0 C-0.60994211 3.42065399 -1.47252447 6.52950913 -2.71826172 9.77099609 C-3.06887665 10.68899994 -3.41949158 11.60700378 -3.7807312 12.55282593 C-4.15988678 13.53312775 -4.53904236 14.51342957 -4.9296875 15.5234375 C-5.32068634 16.54297516 -5.71168518 17.56251282 -6.11453247 18.61294556 C-6.94151179 20.7670958 -7.77040474 22.92051223 -8.60107422 25.07324219 C-9.86710595 28.35454023 -11.12743369 31.63798262 -12.38671875 34.921875 C-13.19237404 37.01835766 -13.99835306 39.11471595 -14.8046875 41.2109375 C-15.17979462 42.18719086 -15.55490173 43.16344421 -15.94137573 44.16928101 C-16.95087916 46.78357615 -17.97457504 49.39192134 -19 52 C-19.27120667 52.72262024 -19.54241333 53.44524048 -19.82183838 54.1897583 C-20.57470703 56.11181641 -20.57470703 56.11181641 -22 59 C-25 60 -25 60 -36 61 C-22.14 61.33 -8.28 61.66 6 62 C-0.18121324 75.15456984 -6.53609188 88.20139536 -13.0625 101.1875 C-13.93704048 102.9315446 -14.81139015 104.67568489 -15.68554688 106.41992188 C-17.78783738 110.61455828 -19.89397389 114.80722981 -22 119 C-31.24 119 -40.48 119 -50 119 C-50 166.85 -50 214.7 -50 264 C-50.33 264 -50.66 264 -51 264 C-51.00358253 262.40894172 -51.00358253 262.40894172 -51.00723743 260.78574085 C-51.06631575 234.84696415 -51.1423701 208.90827822 -51.23571491 182.96960163 C-51.28047413 170.42529967 -51.31993328 157.88102484 -51.34643555 145.33666992 C-51.369578 134.3892343 -51.40315336 123.44188601 -51.44870156 112.49451989 C-51.47241722 106.71050439 -51.49128649 100.92657419 -51.49761391 95.14251137 C-51.52752406 62.19634867 -51.52752406 62.19634867 -54.36174011 29.40275574 C-56.06158676 16.09238014 -56.06158676 16.09238014 -52 10 C-46.68541412 4.75627526 -42.45361079 3.72869015 -35.1953125 3.02734375 C-34.31978729 2.93997452 -33.44426208 2.85260529 -32.54220581 2.7625885 C-30.68799045 2.57837654 -28.83358276 2.39609194 -26.97900391 2.21557617 C-24.14308721 1.9392623 -21.30785079 1.65666489 -18.47265625 1.37304688 C-16.67191185 1.1949395 -14.8711317 1.01719324 -13.0703125 0.83984375 C-12.22228058 0.75548569 -11.37424866 0.67112762 -10.5005188 0.58421326 C-9.70644623 0.50735794 -8.91237366 0.43050262 -8.09423828 0.35131836 C-7.39855743 0.28327499 -6.70287659 0.21523163 -5.9861145 0.14512634 C-3.99546395 -0.00033145 -1.99595782 0 0 0 Z " fill="#475154" transform="translate(136,137)"/>
<path d="M0 0 C2.88916016 -0.34057617 2.88916016 -0.34057617 6.5390625 -0.29296875 C7.71162598 -0.28547607 8.88418945 -0.2779834 10.09228516 -0.27026367 C12.335979 -0.22929565 12.335979 -0.22929565 14.625 -0.1875 C19.36875 -0.125625 24.1125 -0.06375 29 0 C29 18.81 29 37.62 29 57 C10.19 57 -8.62 57 -28 57 C-26.66327466 52.98982398 -25.45566253 49.6620521 -23.6015625 45.96020508 C-23.1276709 45.00934525 -22.6537793 44.05848541 -22.16552734 43.07881165 C-21.40296631 41.56446785 -21.40296631 41.56446785 -20.625 40.01953125 C-20.09986816 38.9697258 -19.57473633 37.91992035 -19.03369141 36.83830261 C-17.92604977 34.62603327 -16.8164697 32.41473354 -15.70507812 30.2043457 C-14.00189005 26.8162598 -12.30515227 23.42500329 -10.609375 20.03320312 C-9.53162783 17.88262311 -8.45351537 15.73222612 -7.375 13.58203125 C-6.61243896 12.05857841 -6.61243896 12.05857841 -5.83447266 10.50434875 C-5.36058105 9.5629454 -4.88668945 8.62154205 -4.3984375 7.65161133 C-3.98255371 6.82365555 -3.56666992 5.99569977 -3.13818359 5.14265442 C-2 3 -2 3 0 0 Z " fill="#384044" transform="translate(398,199)"/>
<path d="M0 0 C5.92285914 -0.32037657 9.77121913 0.33617014 14.72265625 3.640625 C22.60780853 11.17243319 21.53232553 25.26374387 22.50390625 35.47265625 C22.63551147 36.83765259 22.63551147 36.83765259 22.76977539 38.23022461 C22.88953735 39.56452515 22.88953735 39.56452515 23.01171875 40.92578125 C23.11830811 42.09608887 23.11830811 42.09608887 23.22705078 43.29003906 C23.45025815 47.60059686 23.40674145 51.90734483 23.37890625 56.22265625 C16.69007203 56.94061975 10.00055986 57.65199202 3.31054688 58.35888672 C1.03694972 58.59989837 -1.23649079 58.84239268 -3.50976562 59.08642578 C-6.78605271 59.43786638 -10.0628747 59.78388964 -13.33984375 60.12890625 C-14.34849487 60.23827515 -15.357146 60.34764404 -16.3963623 60.46032715 C-21.84084317 61.02781739 -27.14720413 61.33622242 -32.62109375 61.22265625 C-31.99609655 57.69660123 -31.07787236 54.4917938 -29.81103516 51.14453125 C-29.44039948 50.16000977 -29.06976379 49.17548828 -28.68789673 48.16113281 C-28.28686737 47.10893555 -27.88583801 46.05673828 -27.47265625 44.97265625 C-27.05946136 43.88178711 -26.64626648 42.79091797 -26.22055054 41.66699219 C-25.34659121 39.36318538 -24.47061697 37.06014207 -23.59277344 34.7578125 C-22.25197715 31.23810071 -20.920524 27.71495306 -19.58984375 24.19140625 C-18.73884485 21.9516087 -17.88730049 19.7120183 -17.03515625 17.47265625 C-16.43968491 15.89436035 -16.43968491 15.89436035 -15.83218384 14.28417969 C-15.45524384 13.2996582 -15.07830383 12.31513672 -14.68994141 11.30078125 C-14.19815903 10.00769043 -14.19815903 10.00769043 -13.69644165 8.68847656 C-12.5287196 6.01083823 -11.29399891 3.62046841 -9.62109375 1.22265625 C-6.34462362 0.33527892 -3.36465858 0.28582048 0 0 Z " fill="#384145" transform="translate(401.62109375,110.77734375)"/>
<path d="M0 0 C-1.91138286 6.69086221 -4.11011996 13.18812543 -6.65234375 19.6640625 C-7.16445152 20.97943497 -7.16445152 20.97943497 -7.68690491 22.32138062 C-8.40352684 24.15901387 -9.12209031 25.9958911 -9.8425293 27.83203125 C-10.93662725 30.62277386 -12.02241613 33.41664926 -13.10742188 36.2109375 C-13.8094008 38.00800595 -14.51185857 39.80488744 -15.21484375 41.6015625 C-15.53476791 42.42572662 -15.85469208 43.24989075 -16.18431091 44.09902954 C-17.69843549 47.94338726 -19.27425258 51.75743131 -21.00170898 55.51123047 C-21.29520737 56.15478485 -21.58870575 56.79833923 -21.89109802 57.46139526 C-23 59 -23 59 -26.7578125 60.21875 C-28.21045017 60.35209273 -29.66732096 60.44424788 -31.125 60.5 C-31.87966553 60.55784668 -32.63433105 60.61569336 -33.41186523 60.67529297 C-38.93832831 61.06475561 -44.46308472 61.17577509 -50 61 C-49.35175312 55.49519674 -47.53272352 50.70631107 -45.54296875 45.578125 C-45.19873367 44.67809753 -44.8544986 43.77807007 -44.49983215 42.85076904 C-43.40098038 39.98179597 -42.29428365 37.11592115 -41.1875 34.25 C-40.45457786 32.33873343 -39.72215104 30.42727684 -38.99023438 28.515625 C-35.38229756 19.10858465 -35.38229756 19.10858465 -33.95932007 15.47692871 C-33.28222824 13.72870282 -32.62507486 11.97269139 -31.98233032 10.21154785 C-31.64438446 9.30868042 -31.3064386 8.40581299 -30.95825195 7.47558594 C-30.65877151 6.65539978 -30.35929108 5.83521362 -30.05073547 4.99017334 C-29 3 -29 3 -25.8125 1.4375 C-24.554375 1.293125 -23.29625 1.14875 -22 1 C-21.34128906 0.89558594 -20.68257813 0.79117188 -20.00390625 0.68359375 C-13.37137995 -0.27781832 -6.6850666 -0.09299165 0 0 Z " fill="#E9EDEE" transform="translate(278,124)"/>
<path d="M0 0 C-2.05087313 6.31749316 -4.28530101 12.54460663 -6.65234375 18.75 C-7.16445152 20.09723145 -7.16445152 20.09723145 -7.68690491 21.47167969 C-8.40450741 23.35777939 -9.12306196 25.24351712 -9.8425293 27.12890625 C-10.93405625 29.99097024 -12.02091021 32.85477891 -13.10742188 35.71875 C-13.80961348 37.56260755 -14.51207837 39.40636106 -15.21484375 41.25 C-15.53476791 42.09401367 -15.85469208 42.93802734 -16.18431091 43.80761719 C-16.80116485 45.4198666 -17.42757049 47.02850074 -18.06443787 48.63294983 C-18.70889458 50.26347902 -19.32698168 51.90459579 -19.92298889 53.55345154 C-22.2908814 59.65950771 -22.2908814 59.65950771 -25.70141602 61.29711914 C-26.70873779 61.37567139 -27.71605957 61.45422363 -28.75390625 61.53515625 C-29.85541016 61.64150391 -30.95691406 61.74785156 -32.09179688 61.85742188 C-33.23712891 61.92509766 -34.38246094 61.99277344 -35.5625 62.0625 C-36.71169922 62.16498047 -37.86089844 62.26746094 -39.04492188 62.37304688 C-43.03705967 62.71683379 -46.99250749 63 -51 63 C-48.95604301 55.80429048 -46.52457143 48.82738126 -43.83984375 41.84765625 C-43.44930313 40.82570663 -43.05876251 39.80375702 -42.65638733 38.75083923 C-41.83707674 36.6098221 -41.0159621 34.46949453 -40.19311523 32.32983398 C-38.93248236 29.04944321 -37.67976785 25.76610303 -36.42773438 22.48242188 C-35.62807485 20.39565291 -34.82796084 18.30905803 -34.02734375 16.22265625 C-33.65334946 15.24144302 -33.27935516 14.2602298 -32.89402771 13.24928284 C-32.54348831 12.340811 -32.19294891 11.43233917 -31.83178711 10.49633789 C-31.37236977 9.29914879 -31.37236977 9.29914879 -30.90367126 8.07777405 C-30 6 -30 6 -28 3 C-25.26780479 2.08926826 -23.09813477 1.73125962 -20.25390625 1.46484375 C-19.33416016 1.37783203 -18.41441406 1.29082031 -17.46679688 1.20117188 C-16.50837891 1.11416016 -15.54996094 1.02714844 -14.5625 0.9375 C-13.13067383 0.80118164 -13.13067383 0.80118164 -11.66992188 0.66210938 C-7.74982316 0.29725764 -3.94202232 0 0 0 Z " fill="#394245" transform="translate(363,115)"/>
<path d="M0 0 C1.16781006 0.00523682 2.33562012 0.01047363 3.53881836 0.01586914 C4.79887695 0.0190918 6.05893555 0.02231445 7.35717773 0.02563477 C8.6976732 0.03399136 10.03816799 0.04245632 11.37866211 0.05102539 C12.72306153 0.05603879 14.06746271 0.06060197 15.41186523 0.06469727 C18.71334151 0.07653051 22.01473014 0.09301568 25.31616211 0.11352539 C24.62420854 3.47421085 23.36557026 6.26241531 21.83178711 9.32519531 C21.05593262 10.88151924 21.05593262 10.88151924 20.2644043 12.46928406 C19.70398438 13.58293839 19.14356445 14.69659271 18.56616211 15.84399414 C17.70619629 17.56323845 17.70619629 17.56323845 16.82885742 19.31721497 C15.61746332 21.73844173 14.40339922 24.15830378 13.18725586 26.57714844 C11.62616685 29.68229157 10.0703936 32.79006011 8.51641846 35.89876842 C7.03523487 38.86079898 5.55065743 41.82112186 4.06616211 44.78149414 C3.50574219 45.90122116 2.94532227 47.02094818 2.36791992 48.17460632 C1.85068359 49.20269913 1.33344727 50.23079193 0.80053711 51.29003906 C0.11556152 52.65427254 0.11556152 52.65427254 -0.58325195 54.04606628 C-1.68383789 56.11352539 -1.68383789 56.11352539 -2.68383789 57.11352539 C-4.75645866 57.20119651 -6.83204083 57.22048412 -8.90649414 57.21118164 C-10.16655273 57.20795898 -11.42661133 57.20473633 -12.72485352 57.20141602 C-14.06534898 57.19305942 -15.40584377 57.18459446 -16.74633789 57.17602539 C-18.09073731 57.17101199 -19.43513849 57.16644881 -20.77954102 57.16235352 C-24.0810173 57.15052027 -27.38240592 57.1340351 -30.68383789 57.11352539 C-29.44413273 53.18648774 -28.0211375 49.53918889 -26.17773438 45.85839844 C-25.68059433 44.86104172 -25.18345428 43.863685 -24.67124939 42.83610535 C-24.13786453 41.77652115 -23.60447968 40.71693695 -23.05493164 39.62524414 C-22.23038231 37.97683281 -22.23038231 37.97683281 -21.38917542 36.29512024 C-20.23025912 33.98030178 -19.06940421 31.66645302 -17.90673828 29.35351562 C-16.12011712 25.79859636 -14.33998811 22.24052439 -12.56079102 18.68188477 C-11.4342163 16.43364823 -10.30727596 14.18559487 -9.17993164 11.93774414 C-8.64452255 10.86803879 -8.10911346 9.79833344 -7.55747986 8.69621277 C-7.06349197 7.71461685 -6.56950409 6.73302094 -6.06054688 5.72167969 C-5.62467758 4.8537529 -5.18880829 3.98582611 -4.73973083 3.09159851 C-3.16080891 0.1337011 -3.16080891 0.1337011 0 0 Z " fill="#E9EDEE" transform="translate(144.683837890625,198.886474609375)"/>
<path d="M0 0 C9.57 0 19.14 0 29 0 C22.81878676 13.15456984 16.46390812 26.20139536 9.9375 39.1875 C9.06295952 40.9315446 8.18860985 42.67568489 7.31445312 44.41992188 C5.21216262 48.61455828 3.10602611 52.80722981 1 57 C-8.57 57 -18.14 57 -28 57 C-21.81878676 43.84543016 -15.46390812 30.79860464 -8.9375 17.8125 C-8.06295952 16.0684554 -7.18860985 14.32431511 -6.31445312 12.58007812 C-4.21216262 8.38544172 -2.10602611 4.19277019 0 0 Z " fill="#4A5155" transform="translate(227,199)"/>
<path d="M0 0 C1.16781006 0.00523682 2.33562012 0.01047363 3.53881836 0.01586914 C4.79887695 0.0190918 6.05893555 0.02231445 7.35717773 0.02563477 C8.6976732 0.03399136 10.03816799 0.04245632 11.37866211 0.05102539 C12.72306153 0.05603879 14.06746271 0.06060197 15.41186523 0.06469727 C18.71334151 0.07653051 22.01473014 0.09301568 25.31616211 0.11352539 C24.07645695 4.04056304 22.65346171 7.68786189 20.81005859 11.36865234 C20.31291855 12.36600906 19.8157785 13.36336578 19.30357361 14.39094543 C18.77018875 15.45052963 18.23680389 16.51011383 17.68725586 17.60180664 C17.1375563 18.70074753 16.58785675 19.79968842 16.02149963 20.93193054 C14.86258334 23.246749 13.70172843 25.56059776 12.5390625 27.87353516 C10.75244134 31.42845442 8.97231233 34.98652639 7.19311523 38.54516602 C6.06654052 40.79340255 4.93960018 43.04145591 3.81225586 45.28930664 C3.27684677 46.35901199 2.74143768 47.42871735 2.18980408 48.53083801 C1.69581619 49.51243393 1.20182831 50.49402985 0.69287109 51.50537109 C0.2570018 52.37329788 -0.17886749 53.24122467 -0.62794495 54.13545227 C-1.68383789 56.11352539 -1.68383789 56.11352539 -2.68383789 57.11352539 C-4.75645866 57.20119651 -6.83204083 57.22048412 -8.90649414 57.21118164 C-10.16655273 57.20795898 -11.42661133 57.20473633 -12.72485352 57.20141602 C-14.06534898 57.19305942 -15.40584377 57.18459446 -16.74633789 57.17602539 C-18.09073731 57.17101199 -19.43513849 57.16644881 -20.77954102 57.16235352 C-24.0810173 57.15052027 -27.38240592 57.1340351 -30.68383789 57.11352539 C-29.44413273 53.18648774 -28.0211375 49.53918889 -26.17773438 45.85839844 C-25.68059433 44.86104172 -25.18345428 43.863685 -24.67124939 42.83610535 C-24.13786453 41.77652115 -23.60447968 40.71693695 -23.05493164 39.62524414 C-22.23038231 37.97683281 -22.23038231 37.97683281 -21.38917542 36.29512024 C-20.23025912 33.98030178 -19.06940421 31.66645302 -17.90673828 29.35351562 C-16.12011712 25.79859636 -14.33998811 22.24052439 -12.56079102 18.68188477 C-11.4342163 16.43364823 -10.30727596 14.18559487 -9.17993164 11.93774414 C-8.64452255 10.86803879 -8.10911346 9.79833344 -7.55747986 8.69621277 C-7.06349197 7.71461685 -6.56950409 6.73302094 -6.06054688 5.72167969 C-5.62467758 4.8537529 -5.18880829 3.98582611 -4.73973083 3.09159851 C-3.16080891 0.1337011 -3.16080891 0.1337011 0 0 Z " fill="#E9EDEE" transform="translate(258.683837890625,198.886474609375)"/>
<path d="M0 0 C1.16781006 0.00523682 2.33562012 0.01047363 3.53881836 0.01586914 C4.79887695 0.0190918 6.05893555 0.02231445 7.35717773 0.02563477 C8.6976732 0.03399136 10.03816799 0.04245632 11.37866211 0.05102539 C12.72306153 0.05603879 14.06746271 0.06060197 15.41186523 0.06469727 C18.71334151 0.07653051 22.01473014 0.09301568 25.31616211 0.11352539 C24.07645695 4.04056304 22.65346171 7.68786189 20.81005859 11.36865234 C20.31291855 12.36600906 19.8157785 13.36336578 19.30357361 14.39094543 C18.77018875 15.45052963 18.23680389 16.51011383 17.68725586 17.60180664 C17.1375563 18.70074753 16.58785675 19.79968842 16.02149963 20.93193054 C14.86258334 23.246749 13.70172843 25.56059776 12.5390625 27.87353516 C10.75244134 31.42845442 8.97231233 34.98652639 7.19311523 38.54516602 C6.06654052 40.79340255 4.93960018 43.04145591 3.81225586 45.28930664 C3.27684677 46.35901199 2.74143768 47.42871735 2.18980408 48.53083801 C1.69581619 49.51243393 1.20182831 50.49402985 0.69287109 51.50537109 C0.2570018 52.37329788 -0.17886749 53.24122467 -0.62794495 54.13545227 C-1.68383789 56.11352539 -1.68383789 56.11352539 -2.68383789 57.11352539 C-4.75645866 57.20119651 -6.83204083 57.22048412 -8.90649414 57.21118164 C-10.16655273 57.20795898 -11.42661133 57.20473633 -12.72485352 57.20141602 C-14.06534898 57.19305942 -15.40584377 57.18459446 -16.74633789 57.17602539 C-18.09073731 57.17101199 -19.43513849 57.16644881 -20.77954102 57.16235352 C-24.0810173 57.15052027 -27.38240592 57.1340351 -30.68383789 57.11352539 C-29.44413273 53.18648774 -28.0211375 49.53918889 -26.17773438 45.85839844 C-25.68059433 44.86104172 -25.18345428 43.863685 -24.67124939 42.83610535 C-24.13786453 41.77652115 -23.60447968 40.71693695 -23.05493164 39.62524414 C-22.23038231 37.97683281 -22.23038231 37.97683281 -21.38917542 36.29512024 C-20.23025912 33.98030178 -19.06940421 31.66645302 -17.90673828 29.35351562 C-16.12011712 25.79859636 -14.33998811 22.24052439 -12.56079102 18.68188477 C-11.4342163 16.43364823 -10.30727596 14.18559487 -9.17993164 11.93774414 C-8.64452255 10.86803879 -8.10911346 9.79833344 -7.55747986 8.69621277 C-7.06349197 7.71461685 -6.56950409 6.73302094 -6.06054688 5.72167969 C-5.62467758 4.8537529 -5.18880829 3.98582611 -4.73973083 3.09159851 C-3.16080891 0.1337011 -3.16080891 0.1337011 0 0 Z " fill="#CED3D7" transform="translate(315.683837890625,198.886474609375)"/>
<path d="M0 0 C1.16781006 0.00523682 2.33562012 0.01047363 3.53881836 0.01586914 C4.79887695 0.0190918 6.05893555 0.02231445 7.35717773 0.02563477 C8.6976732 0.03399136 10.03816799 0.04245632 11.37866211 0.05102539 C12.72306153 0.05603879 14.06746271 0.06060197 15.41186523 0.06469727 C18.71334151 0.07653051 22.01473014 0.09301568 25.31616211 0.11352539 C24.07645695 4.04056304 22.65346171 7.68786189 20.81005859 11.36865234 C20.31291855 12.36600906 19.8157785 13.36336578 19.30357361 14.39094543 C18.77018875 15.45052963 18.23680389 16.51011383 17.68725586 17.60180664 C17.1375563 18.70074753 16.58785675 19.79968842 16.02149963 20.93193054 C14.86258334 23.246749 13.70172843 25.56059776 12.5390625 27.87353516 C10.75244134 31.42845442 8.97231233 34.98652639 7.19311523 38.54516602 C6.06654052 40.79340255 4.93960018 43.04145591 3.81225586 45.28930664 C3.27684677 46.35901199 2.74143768 47.42871735 2.18980408 48.53083801 C1.69581619 49.51243393 1.20182831 50.49402985 0.69287109 51.50537109 C0.2570018 52.37329788 -0.17886749 53.24122467 -0.62794495 54.13545227 C-1.68383789 56.11352539 -1.68383789 56.11352539 -2.68383789 57.11352539 C-4.75645866 57.20119651 -6.83204083 57.22048412 -8.90649414 57.21118164 C-10.16655273 57.20795898 -11.42661133 57.20473633 -12.72485352 57.20141602 C-14.06534898 57.19305942 -15.40584377 57.18459446 -16.74633789 57.17602539 C-18.09073731 57.17101199 -19.43513849 57.16644881 -20.77954102 57.16235352 C-24.0810173 57.15052027 -27.38240592 57.1340351 -30.68383789 57.11352539 C-29.44413273 53.18648774 -28.0211375 49.53918889 -26.17773438 45.85839844 C-25.68059433 44.86104172 -25.18345428 43.863685 -24.67124939 42.83610535 C-24.13786453 41.77652115 -23.60447968 40.71693695 -23.05493164 39.62524414 C-22.23038231 37.97683281 -22.23038231 37.97683281 -21.38917542 36.29512024 C-20.23025912 33.98030178 -19.06940421 31.66645302 -17.90673828 29.35351562 C-16.12011712 25.79859636 -14.33998811 22.24052439 -12.56079102 18.68188477 C-11.4342163 16.43364823 -10.30727596 14.18559487 -9.17993164 11.93774414 C-8.64452255 10.86803879 -8.10911346 9.79833344 -7.55747986 8.69621277 C-7.06349197 7.71461685 -6.56950409 6.73302094 -6.06054688 5.72167969 C-5.62467758 4.8537529 -5.18880829 3.98582611 -4.73973083 3.09159851 C-3.16080891 0.1337011 -3.16080891 0.1337011 0 0 Z " fill="#EAEEEF" transform="translate(201.683837890625,198.886474609375)"/>
<path d="M0 0 C9.24 0 18.48 0 28 0 C27.16810698 4.15946508 26.35275058 6.66193001 24.49975586 10.34106445 C23.97929184 11.3817659 23.45882782 12.42246735 22.92259216 13.4947052 C22.35903519 14.6063353 21.79547821 15.71796539 21.21484375 16.86328125 C20.63916153 18.01040085 20.06347931 19.15752045 19.47035217 20.33940125 C17.94510856 23.37847335 16.41269028 26.41387119 14.87872314 29.44854736 C13.31256558 32.55008979 11.75319095 35.65503824 10.19335938 38.75976562 C7.13620264 44.84356854 4.06785349 50.92153701 1 57 C-8.57 57 -18.14 57 -28 57 C-21.81878676 43.84543016 -15.46390812 30.79860464 -8.9375 17.8125 C-8.06295952 16.0684554 -7.18860985 14.32431511 -6.31445312 12.58007812 C-4.21216262 8.38544172 -2.10602611 4.19277019 0 0 Z " fill="#394145" transform="translate(341,199)"/>
<path d="M0 0 C1.16257324 0.01047363 2.32514648 0.02094727 3.52294922 0.03173828 C5.40820312 0.04140625 5.40820312 0.04140625 7.33154297 0.05126953 C9.30960937 0.07640625 9.30960937 0.07640625 11.32763672 0.10205078 C12.66747393 0.11208096 14.00731823 0.12120674 15.34716797 0.12939453 C18.63250244 0.15303003 21.91748137 0.18597844 25.20263672 0.22705078 C19.03625033 13.38666932 12.66588422 26.42976062 6.14013672 39.41455078 C5.26559624 41.15859538 4.39124657 42.90273568 3.51708984 44.64697266 C1.41479934 48.84160906 -0.69133717 53.03428059 -2.79736328 57.22705078 C-12.36736328 57.22705078 -21.93736328 57.22705078 -31.79736328 57.22705078 C-26.23452116 45.27724178 -20.46903815 33.43740885 -14.59222412 21.63952637 C-13.76993505 19.98810633 -12.94901401 18.33600442 -12.12945557 16.68322754 C-10.96171688 14.32985108 -9.78855212 11.97926112 -8.61376953 9.62939453 C-8.08141945 8.55397652 -8.08141945 8.55397652 -7.53831482 7.45683289 C-3.95394315 0.32092574 -3.95394315 0.32092574 0 0 Z " fill="#3A4245" transform="translate(287.79736328125,198.77294921875)"/>
<path d="M0 0 C1.88041992 0.01933594 1.88041992 0.01933594 3.79882812 0.0390625 C5.10916016 0.07257813 6.41949219 0.10609375 7.76953125 0.140625 C9.10479135 0.16069193 10.44008008 0.17894238 11.77539062 0.1953125 C15.04499271 0.24252697 18.31315317 0.30837316 21.58203125 0.390625 C15.41564486 13.55024354 9.04527875 26.59333483 2.51953125 39.578125 C1.64499077 41.3221696 0.7706411 43.06630989 -0.10351562 44.81054688 C-2.20580613 49.00518328 -4.31194264 53.19785481 -6.41796875 57.390625 C-15.98796875 57.390625 -25.55796875 57.390625 -35.41796875 57.390625 C-30.00161941 45.77009369 -24.41105049 34.24543537 -18.6960144 22.76947021 C-17.92862947 21.22787608 -17.1626126 19.68560017 -16.39797974 18.14263916 C-15.30726444 15.94323932 -14.21106919 13.74665785 -13.11328125 11.55078125 C-12.7854213 10.88791611 -12.45756134 10.22505096 -12.11976624 9.542099 C-7.25932181 -0.13139044 -7.25932181 -0.13139044 0 0 Z " fill="#4A5155" transform="translate(177.41796875,198.609375)"/>
<path d="M0 0 C-4.15857761 11.95689515 -8.44721044 23.86115999 -12.95898438 35.68969727 C-13.66190014 37.54507179 -14.35570291 39.40392078 -15.04101562 41.26586914 C-16.04754525 43.9970996 -17.08283428 46.71579492 -18.125 49.43359375 C-18.42519043 50.2667662 -18.72538086 51.09993866 -19.03466797 51.95835876 C-21.25395083 57.61399736 -21.25395083 57.61399736 -24.89111328 59.49584961 C-27.80936662 59.96908607 -30.66973487 60.40099038 -33.6171875 60.6328125 C-34.63554687 60.71660156 -35.65390625 60.80039063 -36.703125 60.88671875 C-37.74984375 60.96535156 -38.7965625 61.04398438 -39.875 61.125 C-40.94492188 61.21136719 -42.01484375 61.29773438 -43.1171875 61.38671875 C-45.74434352 61.5978295 -48.37192573 61.80075449 -51 62 C-48.98483176 54.87036936 -46.55996067 47.99039458 -43.83984375 41.1015625 C-43.44930313 40.1041806 -43.05876251 39.10679871 -42.65638733 38.07919312 C-41.83717604 35.98939494 -41.01606045 33.90034233 -40.19311523 31.81201172 C-38.93344917 28.61471816 -37.68012626 25.41499272 -36.42773438 22.21484375 C-35.62797272 20.17693866 -34.82785511 18.13917322 -34.02734375 16.1015625 C-33.65334946 15.14738434 -33.27935516 14.19320618 -32.89402771 13.21011353 C-32.36821861 11.8775502 -32.36821861 11.8775502 -31.83178711 10.51806641 C-31.52550888 9.73992584 -31.21923065 8.96178528 -30.90367126 8.1600647 C-30.01624456 6.03882971 -29.14912504 3.99316192 -28 2 C-25.95629883 1.36230469 -25.95629883 1.36230469 -23.45703125 1.171875 C-22.54759766 1.09453125 -21.63816406 1.0171875 -20.70117188 0.9375 C-19.74791016 0.875625 -18.79464844 0.81375 -17.8125 0.75 C-16.87857422 0.67265625 -15.94464844 0.5953125 -14.98242188 0.515625 C-9.97401994 0.12087411 -5.02600204 -0.029376 0 0 Z " fill="#4A5155" transform="translate(193,132)"/>
<path d="M0 0 C-2.08317086 7.40331083 -4.64228741 14.53832819 -7.44921875 21.6953125 C-7.86669876 22.76876923 -8.28417877 23.84222595 -8.71430969 24.94821167 C-10.03509877 28.34189315 -11.36120607 31.73346663 -12.6875 35.125 C-13.58954644 37.43996636 -14.49124261 39.75506925 -15.39257812 42.0703125 C-17.59100546 47.71512613 -19.79379087 53.35822357 -22 59 C-24.97858727 59.33937108 -27.95769685 59.67162259 -30.9375 60 C-31.76830078 60.09539062 -32.59910156 60.19078125 -33.45507812 60.2890625 C-39.00584043 60.89381481 -44.416351 61.09014973 -50 61 C-47.91682914 53.59668917 -45.35771259 46.46167181 -42.55078125 39.3046875 C-42.13330124 38.23123077 -41.71582123 37.15777405 -41.28569031 36.05178833 C-39.96490123 32.65810685 -38.63879393 29.26653337 -37.3125 25.875 C-36.41045356 23.56003364 -35.50875739 21.24493075 -34.60742188 18.9296875 C-32.40899454 13.28487387 -30.20620913 7.64177643 -28 2 C-25.30383349 1.66522017 -22.60722287 1.33519325 -19.91015625 1.0078125 C-18.77640564 0.86629761 -18.77640564 0.86629761 -17.61975098 0.72192383 C-11.71865759 0.01117912 -5.94229245 -0.18133159 0 0 Z " fill="#4A5155" transform="translate(249,127)"/>
<path d="M0 0 C-2.08199656 7.38602197 -4.62485532 14.51420589 -7.4140625 21.66015625 C-7.82917084 22.7312413 -8.24427917 23.80232635 -8.67196655 24.90586853 C-9.54249482 27.1494665 -10.41488588 29.39234251 -11.2890625 31.63452148 C-12.63256663 35.08191575 -13.96903257 38.53197996 -15.3046875 41.98242188 C-16.15323335 44.16682694 -17.00217724 46.35107744 -17.8515625 48.53515625 C-18.25259186 49.57043961 -18.65362122 50.60572296 -19.06680298 51.67237854 C-19.43743866 52.62104294 -19.80807434 53.56970734 -20.18994141 54.54711914 C-20.51620514 55.38521622 -20.84246887 56.22331329 -21.17861938 57.08680725 C-22 59 -22 59 -23 60 C-24.99616505 60.22881538 -26.99954193 60.39531688 -29.00390625 60.53515625 C-30.82631836 60.66567383 -30.82631836 60.66567383 -32.68554688 60.79882812 C-33.96494141 60.88583984 -35.24433594 60.97285156 -36.5625 61.0625 C-38.48739258 61.19881836 -38.48739258 61.19881836 -40.45117188 61.33789062 C-43.63385015 61.56268946 -46.81676858 61.78319818 -50 62 C-48.70850933 55.51741407 -46.88599319 49.6030257 -44.4453125 43.46875 C-44.10249237 42.59279175 -43.75967224 41.7168335 -43.40646362 40.81433105 C-42.68502581 38.97445663 -41.96046233 37.13580501 -41.23291016 35.29833984 C-40.12899509 32.51009073 -39.03436116 29.71834245 -37.94140625 26.92578125 C-37.23491355 25.1273925 -36.52789949 23.32920847 -35.8203125 21.53125 C-35.49725128 20.70911011 -35.17419006 19.88697021 -34.84133911 19.03991699 C-33.90875486 16.68708632 -32.95821863 14.34249637 -32 12 C-31.66390717 11.15884644 -31.32781433 10.31769287 -30.98153687 9.4510498 C-30.64280548 8.63704712 -30.3040741 7.82304443 -29.95507812 6.984375 C-29.65428345 6.24993164 -29.35348877 5.51548828 -29.0435791 4.75878906 C-28 3 -28 3 -24.8984375 1.71875 C-23.73570312 1.6465625 -22.57296875 1.574375 -21.375 1.5 C-20.1375 1.39945313 -18.9 1.29890625 -17.625 1.1953125 C-15.830625 1.09863281 -15.830625 1.09863281 -14 1 C-12.12412363 0.79971112 -10.24895729 0.5925129 -8.375 0.375 C-5.53499482 0.09390734 -2.87129328 0 0 0 Z " fill="#E9EEEF" transform="translate(221,129)"/>
<path d="M0 0 C-2.08484207 7.37791783 -4.61128103 14.51302021 -7.37890625 21.66015625 C-7.79164291 22.7312413 -8.20437958 23.80232635 -8.62962341 24.90586853 C-9.49581755 27.14951633 -10.36401452 29.39239185 -11.23413086 31.63452148 C-12.5696007 35.080824 -13.8934188 38.53146093 -15.21679688 41.98242188 C-16.06179608 44.16693908 -16.90747467 46.35119364 -17.75390625 48.53515625 C-18.14977432 49.57043961 -18.5456424 50.60572296 -18.95350647 51.67237854 C-19.50934669 53.09537514 -19.50934669 53.09537514 -20.07641602 54.54711914 C-20.40045914 55.38521622 -20.72450226 56.22331329 -21.05836487 57.08680725 C-22 59 -22 59 -24 60 C-25.95643473 60.22239689 -27.91897725 60.39215854 -29.8828125 60.53515625 C-31.04941406 60.62216797 -32.21601563 60.70917969 -33.41796875 60.79882812 C-34.64128906 60.88583984 -35.86460937 60.97285156 -37.125 61.0625 C-38.35605469 61.15337891 -39.58710938 61.24425781 -40.85546875 61.33789062 C-43.90339115 61.56235003 -46.95154703 61.78288542 -50 62 C-49.25586166 56.99674901 -47.39024923 52.47274548 -45.578125 47.78125 C-45.2362616 46.88692261 -44.89439819 45.99259521 -44.54217529 45.07116699 C-43.44849085 42.21267497 -42.34932852 39.35632551 -41.25 36.5 C-40.52568056 34.60951331 -39.80171865 32.7188896 -39.078125 30.828125 C-37.05703296 25.55017565 -35.02937727 20.27476815 -33 15 C-32.4563405 13.58595277 -31.91271747 12.17189151 -31.36914062 10.7578125 C-30.24662997 7.83833485 -29.12365229 4.9190384 -28 2 C-18.62281522 0.76876355 -9.47827364 -0.28922171 0 0 Z " fill="#384145" transform="translate(306,121)"/>
<path d="M0 0 C-0.67317708 1.77473958 -1.34635417 3.54947917 -2.01953125 5.32421875 C-2.45966553 6.48526123 -2.8997998 7.64630371 -3.35327148 8.8425293 C-4.33343545 11.42695297 -5.31631118 14.01032441 -6.30102539 16.59301758 C-8.66635177 22.80336757 -11.01735271 29.01722835 -13.29151917 35.26164246 C-14.26471405 37.93156671 -15.24811456 40.59767969 -16.23226929 43.26358032 C-16.70129017 44.54310273 -17.16520998 45.82450686 -17.62393188 47.10775757 C-18.26633003 48.90333103 -18.92767184 50.69209301 -19.58984375 52.48046875 C-19.95972412 53.50035889 -20.32960449 54.52024902 -20.71069336 55.57104492 C-22.19324523 58.36405922 -23.04092777 59.01594851 -26 60 C-28.76387932 60.45688617 -31.46976825 60.83005368 -34.25 61.125 C-34.97574219 61.21136719 -35.70148438 61.29773438 -36.44921875 61.38671875 C-41.3271869 61.93451196 -46.09229779 62.07772379 -51 62 C-50.36653458 58.37753536 -49.39013712 55.11906443 -48.06640625 51.69067383 C-47.66929443 50.65642776 -47.27218262 49.6221817 -46.86303711 48.55659485 C-46.43385986 47.45123886 -46.00468262 46.34588287 -45.5625 45.20703125 C-45.12236572 44.064655 -44.68223145 42.92227875 -44.22875977 41.74528503 C-43.2992314 39.33475854 -42.36778912 36.92496931 -41.43457031 34.51586914 C-40.00190993 30.81743053 -38.5746504 27.11694474 -37.1484375 23.41601562 C-36.24510361 21.07540042 -35.34146815 18.73490157 -34.4375 16.39453125 C-33.79373413 14.72738823 -33.79373413 14.72738823 -33.13696289 13.02656555 C-32.73985107 12.00177597 -32.34273926 10.97698639 -31.93359375 9.92114258 C-31.58353271 9.01689041 -31.23347168 8.11263824 -30.87280273 7.1809845 C-30 5 -30 5 -29 3 C-26.76269531 2.49755859 -26.76269531 2.49755859 -23.828125 2.1484375 C-22.77109375 2.01953125 -21.7140625 1.890625 -20.625 1.7578125 C-19.51125 1.63148437 -18.3975 1.50515625 -17.25 1.375 C-16.15171875 1.2409375 -15.0534375 1.106875 -13.921875 0.96875 C-9.25205672 0.41335899 -4.70815893 -0.08043552 0 0 Z " fill="#CED3D7" transform="translate(335,118)"/>
<path d="M0 0 C-0.63346542 3.62246464 -1.60986288 6.88093557 -2.93359375 10.30932617 C-3.52926147 11.86069527 -3.52926147 11.86069527 -4.13696289 13.44340515 C-4.78072876 15.10143913 -4.78072876 15.10143913 -5.4375 16.79296875 C-5.87763428 17.935345 -6.31776855 19.07772125 -6.77124023 20.25471497 C-7.7007686 22.66524146 -8.63221088 25.07503069 -9.56542969 27.48413086 C-10.99809007 31.18256947 -12.4253496 34.88305526 -13.8515625 38.58398438 C-14.75489639 40.92459958 -15.65853185 43.26509843 -16.5625 45.60546875 C-16.99167725 46.71689743 -17.42085449 47.82832611 -17.86303711 48.97343445 C-18.26014893 49.99822403 -18.65726074 51.02301361 -19.06640625 52.07885742 C-19.41646729 52.98310959 -19.76652832 53.88736176 -20.12719727 54.8190155 C-21 57 -21 57 -22 59 C-25.0184692 59.48511112 -27.96125583 59.84625805 -31 60.125 C-31.82628906 60.21136719 -32.65257812 60.29773438 -33.50390625 60.38671875 C-39.02670349 60.93121989 -44.45148346 61.07830568 -50 61 C-47.98089762 53.86134371 -45.55575282 46.96748668 -42.83984375 40.06640625 C-42.44930313 39.06665268 -42.05876251 38.06689911 -41.65638733 37.03684998 C-40.83722927 34.94283629 -40.0161132 32.84958757 -39.19311523 30.75708008 C-37.93228766 27.54923859 -36.67962091 24.33829297 -35.42773438 21.12695312 C-34.62808701 19.08574828 -33.82797343 17.044726 -33.02734375 15.00390625 C-32.65334946 14.0445668 -32.27935516 13.08522736 -31.89402771 12.09681702 C-31.54348831 11.20836594 -31.19294891 10.31991486 -30.83178711 9.40454102 C-30.52550888 8.62417984 -30.21923065 7.84381866 -29.90367126 7.03981018 C-29 5 -29 5 -27 2 C-24.09678781 1.44431865 -21.36843457 1.06951679 -18.4375 0.8125 C-17.27637695 0.6897168 -17.27637695 0.6897168 -16.09179688 0.56445312 C-10.70887959 0.03109163 -5.40766671 -0.07022944 0 0 Z " fill="#EAEEEF" transform="translate(164,135)"/>
<path d="M0 0 C-2.28107353 7.02187811 -4.81439885 13.92023494 -7.44921875 20.81640625 C-7.86669876 21.91347397 -8.28417877 23.01054169 -8.71430969 24.14085388 C-10.03697197 27.61539946 -11.36219456 31.08896187 -12.6875 34.5625 C-13.58936257 36.93027385 -14.491057 39.29811175 -15.39257812 41.66601562 C-17.59310777 47.4447527 -19.79573553 53.22268659 -22 59 C-25.16597571 59.34011625 -28.3328688 59.67083187 -31.5 60 C-32.386875 60.09539062 -33.27375 60.19078125 -34.1875 60.2890625 C-39.49234474 60.83514946 -44.66737152 61.0996753 -50 61 C-49.36068737 55.57238847 -47.57998498 50.90454637 -45.578125 45.8671875 C-45.2362616 44.99409943 -44.89439819 44.12101135 -44.54217529 43.22146606 C-43.45022447 40.43713736 -42.35009572 37.65611918 -41.25 34.875 C-40.5255347 33.02884469 -39.80157153 31.18249226 -39.078125 29.3359375 C-35.48436856 20.18176264 -31.84676972 11.05136033 -28 2 C-25.02141273 1.66062892 -22.04230315 1.32837741 -19.0625 1 C-18.23169922 0.90460938 -17.40089844 0.80921875 -16.54492188 0.7109375 C-10.99415957 0.10618519 -5.583649 -0.09014973 0 0 Z " fill="#CED3D7" transform="translate(391,113)"/>
<path d="M0 0 C1.16781006 0.00523682 2.33562012 0.01047363 3.53881836 0.01586914 C4.79887695 0.0190918 6.05893555 0.02231445 7.35717773 0.02563477 C8.6976732 0.03399136 10.03816799 0.04245632 11.37866211 0.05102539 C12.72306153 0.05603879 14.06746271 0.06060197 15.41186523 0.06469727 C18.71334151 0.07653051 22.01473014 0.09301568 25.31616211 0.11352539 C23.9462757 3.66036443 22.40582406 7.05599597 20.70239258 10.45458984 C20.18200409 11.49529129 19.6616156 12.53599274 19.12545776 13.60823059 C18.56706207 14.71986069 18.00866638 15.83149078 17.43334961 16.97680664 C16.85908234 18.12392624 16.28481506 19.27104584 15.69314575 20.45292664 C14.17260835 23.49019865 12.64967154 26.52626126 11.1262207 29.56207275 C9.56958536 32.66508103 8.01521573 35.7692238 6.46069336 38.87329102 C3.41495688 44.95459797 0.36546643 51.03400141 -2.68383789 57.11352539 C-11.92383789 57.11352539 -21.16383789 57.11352539 -30.68383789 57.11352539 C-29.32256701 53.02971275 -28.06902645 49.63481051 -26.17773438 45.85839844 C-25.68059433 44.86104172 -25.18345428 43.863685 -24.67124939 42.83610535 C-24.13786453 41.77652115 -23.60447968 40.71693695 -23.05493164 39.62524414 C-22.23038231 37.97683281 -22.23038231 37.97683281 -21.38917542 36.29512024 C-20.23025912 33.98030178 -19.06940421 31.66645302 -17.90673828 29.35351562 C-16.12011712 25.79859636 -14.33998811 22.24052439 -12.56079102 18.68188477 C-11.4342163 16.43364823 -10.30727596 14.18559487 -9.17993164 11.93774414 C-8.64452255 10.86803879 -8.10911346 9.79833344 -7.55747986 8.69621277 C-7.06349197 7.71461685 -6.56950409 6.73302094 -6.06054688 5.72167969 C-5.62467758 4.8537529 -5.18880829 3.98582611 -4.73973083 3.09159851 C-3.16080891 0.1337011 -3.16080891 0.1337011 0 0 Z " fill="#CFD4D8" transform="translate(372.683837890625,198.886474609375)"/>
<path d="M0 0 C1.16781006 0.00523682 2.33562012 0.01047363 3.53881836 0.01586914 C4.79887695 0.0190918 6.05893555 0.02231445 7.35717773 0.02563477 C8.6976732 0.03399136 10.03816799 0.04245632 11.37866211 0.05102539 C12.72306153 0.05603879 14.06746271 0.06060197 15.41186523 0.06469727 C18.71334151 0.07653051 22.01473014 0.09301568 25.31616211 0.11352539 C23.58514304 6.16760762 20.69757917 11.60270098 17.87084961 17.19946289 C17.34097443 18.25638336 16.81109924 19.31330383 16.26516724 20.4022522 C14.57758867 23.76624485 12.88445799 27.12740757 11.19116211 30.48852539 C10.043659 32.77349702 8.89651939 35.05865124 7.74975586 37.34399414 C4.9427671 42.93596074 2.1312188 48.52561632 -0.68383789 54.11352539 C-1.01383789 54.11352539 -1.34383789 54.11352539 -1.68383789 54.11352539 C-1.68383789 36.95352539 -1.68383789 19.79352539 -1.68383789 2.11352539 C-2.34383789 1.78352539 -3.00383789 1.45352539 -3.68383789 1.11352539 C-2.68383789 0.11352539 -2.68383789 0.11352539 0 0 Z " fill="#CFD4D8" transform="translate(258.683837890625,198.886474609375)"/>
<path d="M0 0 C1.68802734 0.01353516 1.68802734 0.01353516 3.41015625 0.02734375 C4.66119141 0.04474609 4.66119141 0.04474609 5.9375 0.0625 C4.01098253 6.81541067 1.78113231 13.36742809 -0.78515625 19.90234375 C-1.13130478 20.7911171 -1.47745331 21.67989044 -1.83409119 22.59559631 C-2.55911204 24.45420804 -3.28606622 26.3120667 -4.01489258 28.16918945 C-5.13084532 31.01490576 -6.23864994 33.86370205 -7.34570312 36.71289062 C-8.05420612 38.52622982 -8.76317381 40.33938754 -9.47265625 42.15234375 C-9.96802635 43.42729958 -9.96802635 43.42729958 -10.47340393 44.72801208 C-10.93915077 45.91053307 -10.93915077 45.91053307 -11.41430664 47.11694336 C-11.68505508 47.80848007 -11.95580353 48.50001678 -12.23475647 49.21250916 C-13.0625 51.0625 -13.0625 51.0625 -15.0625 54.0625 C-15.3925 36.5725 -15.7225 19.0825 -16.0625 1.0625 C-10.46287024 0.44031892 -5.53250681 -0.05823691 0 0 Z " fill="#CDD3D7" transform="translate(272.0625,123.9375)"/>
</svg>
